<?xml version="1.0" encoding="UTF-8"?>
<svg xmlns="http://www.w3.org/2000/svg" xmlns:xlink="http://www.w3.org/1999/xlink" width="36px" height="36px" viewBox="0 0 36 36" version="1.1">
<g id="surface1">
<path style=" stroke:none;fill-rule:nonzero;fill:rgb(100%,100%,100%);fill-opacity:1;" d="M 31.117188 4.992188 C 30.53125 4.40625 29.582031 4.40625 28.996094 4.992188 L 18.054688 15.933594 L 7.113281 4.992188 C 6.527344 4.40625 5.578125 4.40625 4.992188 4.992188 C 4.40625 5.578125 4.40625 6.527344 4.992188 7.113281 L 15.933594 18.054688 L 4.992188 28.996094 C 4.40625 29.582031 4.40625 30.53125 4.992188 31.117188 C 5.578125 31.703125 6.527344 31.703125 7.113281 31.117188 L 18.054688 20.175781 L 28.996094 31.117188 C 29.582031 31.703125 30.53125 31.703125 31.117188 31.117188 C 31.703125 30.53125 31.703125 29.582031 31.117188 28.996094 L 20.175781 18.054688 L 31.117188 7.113281 C 31.703125 6.527344 31.703125 5.578125 31.117188 4.992188 Z M 31.117188 4.992188 "/>
</g>
</svg>
