<?xml version="1.0" encoding="UTF-8"?>
<svg xmlns="http://www.w3.org/2000/svg" xmlns:xlink="http://www.w3.org/1999/xlink" width="36px" height="36px" viewBox="0 0 36 36" version="1.1">
<g id="surface1">
<path style=" stroke:none;fill-rule:evenodd;fill:rgb(100%,100%,100%);fill-opacity:1;" d="M 34.199219 7.199219 C 34.199219 8.195312 33.394531 9 32.398438 9 L 3.601562 9 C 2.605469 9 1.800781 8.195312 1.800781 7.199219 C 1.800781 6.207031 2.605469 5.398438 3.601562 5.398438 L 32.398438 5.398438 C 33.394531 5.398438 34.199219 6.207031 34.199219 7.199219 Z M 34.199219 18 C 34.199219 18.992188 33.394531 19.800781 32.398438 19.800781 L 3.601562 19.800781 C 2.605469 19.800781 1.800781 18.992188 1.800781 18 C 1.800781 17.007812 2.605469 16.199219 3.601562 16.199219 L 32.398438 16.199219 C 33.394531 16.199219 34.199219 17.007812 34.199219 18 Z M 32.398438 30.601562 C 33.394531 30.601562 34.199219 29.792969 34.199219 28.800781 C 34.199219 27.804688 33.394531 27 32.398438 27 L 3.601562 27 C 2.605469 27 1.800781 27.804688 1.800781 28.800781 C 1.800781 29.792969 2.605469 30.601562 3.601562 30.601562 Z M 32.398438 30.601562 "/>
</g>
</svg>
